<svg width="38" height="23" viewBox="0 0 38 23" fill="none" xmlns="http://www.w3.org/2000/svg">
<path fill-rule="evenodd" clip-rule="evenodd" d="M2.16981 2.16981V20.8302H35.5849V2.16981H2.16981ZM1.73585 0C0.777166 0 0 0.777166 0 1.73585V21.2642C0 22.2228 0.777166 23 1.73585 23H36.0189C36.9776 23 37.7547 22.2228 37.7547 21.2642V1.73585C37.7547 0.777166 36.9776 0 36.0189 0H1.73585Z" fill="#084A5F"/>
<path d="M20.3962 15.389C13.6698 14.4877 6.9434 14.6379 0 16.2903V21.6981H37.7547V11.5C34.2107 12.3012 27.9906 16.4066 20.3962 15.389Z" fill="#084A5F"/>
<circle cx="28.2075" cy="3.4717" r="3.4717" fill="#084A5F"/>
<path d="M17.6065 7.84391C16.1405 6.53539 15.6519 6.16153 13.9416 6.72232C13.9416 5.60074 11.0096 3.73136 9.788 3.91829C8.56641 4.10523 6.12307 5.18414 6.12303 6.72232C6.123 8.26051 3.51912 7.84391 4.60405 9.71314C5.55036 11.3435 10.7388 12.5171 11.2275 11.5824C11.7162 10.6478 13.9416 11.0216 16.1405 11.5824C18.3395 12.1432 19.8055 10.8347 20.7828 9.71314C21.7601 8.59155 19.0725 9.15242 17.6065 7.84391Z" fill="#084A5F"/>
</svg>
