<svg width="29" height="28" viewBox="0 0 29 28" fill="none" xmlns="http://www.w3.org/2000/svg">
<rect x="1.82935" y="1" width="26" height="26" rx="8" stroke="#084A5F" stroke-width="2" stroke-linejoin="round" stroke-dasharray="10 5"/>
<path d="M9.13159 17H7.57935V11.0166L5.72632 11.5913V10.3291L8.96509 9.16895H9.13159V17ZM17.0378 17H11.6775V15.9365L14.2073 13.2402C14.5546 12.8607 14.8106 12.5295 14.9753 12.2466C15.1436 11.9637 15.2278 11.6951 15.2278 11.4409C15.2278 11.0936 15.1401 10.8215 14.9646 10.6245C14.7891 10.424 14.5385 10.3237 14.2126 10.3237C13.8617 10.3237 13.5842 10.4455 13.3801 10.689C13.1796 10.9289 13.0793 11.2458 13.0793 11.6396H11.5217C11.5217 11.1634 11.6345 10.7284 11.8601 10.3345C12.0893 9.94059 12.4115 9.63265 12.8269 9.41064C13.2423 9.18506 13.7131 9.07227 14.2395 9.07227C15.0452 9.07227 15.67 9.26562 16.114 9.65234C16.5616 10.0391 16.7854 10.5851 16.7854 11.2905C16.7854 11.6772 16.6851 12.0711 16.4846 12.4722C16.2841 12.8732 15.9403 13.3405 15.4534 13.874L13.6755 15.7485H17.0378V17ZM19.573 12.4023H20.4001C20.794 12.4023 21.0859 12.3039 21.2756 12.1069C21.4654 11.91 21.5603 11.6486 21.5603 11.3228C21.5603 11.0076 21.4654 10.7624 21.2756 10.5869C21.0894 10.4115 20.8316 10.3237 20.5022 10.3237C20.205 10.3237 19.9561 10.4061 19.7556 10.5708C19.5551 10.7319 19.4548 10.9432 19.4548 11.2046H17.9026C17.9026 10.7964 18.0118 10.4312 18.2302 10.1089C18.4522 9.78304 18.7602 9.52881 19.1541 9.34619C19.5515 9.16357 19.9884 9.07227 20.4646 9.07227C21.2917 9.07227 21.9399 9.271 22.4089 9.66846C22.878 10.0623 23.1125 10.6066 23.1125 11.3013C23.1125 11.6593 23.0033 11.9888 22.7849 12.2896C22.5665 12.5903 22.28 12.8213 21.9255 12.9824C22.366 13.14 22.6936 13.3763 22.9084 13.6914C23.1269 14.0065 23.2361 14.3789 23.2361 14.8086C23.2361 15.5033 22.9819 16.0601 22.4734 16.479C21.9685 16.8979 21.2989 17.1074 20.4646 17.1074C19.684 17.1074 19.0448 16.9015 18.5471 16.4897C18.053 16.078 17.8059 15.5337 17.8059 14.8569H19.3582C19.3582 15.1506 19.4674 15.3905 19.6858 15.5767C19.9078 15.7629 20.1799 15.856 20.5022 15.856C20.871 15.856 21.1593 15.7593 21.3669 15.5659C21.5782 15.369 21.6838 15.1094 21.6838 14.7871C21.6838 14.0065 21.2542 13.6162 20.3948 13.6162H19.573V12.4023Z" fill="#084A5F"/>
</svg>
