<svg width="26" height="17" viewBox="0 0 26 17" fill="none" xmlns="http://www.w3.org/2000/svg">
<path d="M10.2266 12.7773H4.57617L3.50195 16H0.0751953L5.89746 0.359375H8.88379L14.7383 16H11.3115L10.2266 12.7773ZM5.44629 10.167H9.35645L7.39062 4.3125L5.44629 10.167Z" fill="#084A5F"/>
<path d="M22.7305 16C22.5872 15.7207 22.4834 15.3734 22.4189 14.958C21.667 15.7959 20.6895 16.2148 19.4863 16.2148C18.3477 16.2148 17.4023 15.8854 16.6504 15.2266C15.9056 14.5677 15.5332 13.737 15.5332 12.7344C15.5332 11.5026 15.988 10.5573 16.8975 9.89844C17.8141 9.23958 19.1354 8.90658 20.8613 8.89941H22.29V8.2334C22.29 7.69629 22.1504 7.2666 21.8711 6.94434C21.599 6.62207 21.1657 6.46094 20.5713 6.46094C20.0485 6.46094 19.6367 6.58626 19.3359 6.83691C19.0423 7.08757 18.8955 7.43132 18.8955 7.86816H15.791C15.791 7.19499 15.9987 6.57194 16.4141 5.99902C16.8294 5.42611 17.4167 4.97852 18.1758 4.65625C18.9349 4.32682 19.7871 4.16211 20.7324 4.16211C22.1647 4.16211 23.2998 4.52376 24.1377 5.24707C24.9827 5.96322 25.4053 6.97298 25.4053 8.27637V13.3145C25.4124 14.4173 25.5664 15.2516 25.8672 15.8174V16H22.7305ZM20.1631 13.8408C20.6214 13.8408 21.0439 13.7406 21.4307 13.54C21.8174 13.3324 22.1038 13.0566 22.29 12.7129V10.7148H21.1299C19.5758 10.7148 18.7487 11.252 18.6484 12.3262L18.6377 12.5088C18.6377 12.8955 18.7738 13.2142 19.0459 13.4648C19.318 13.7155 19.6904 13.8408 20.1631 13.8408Z" fill="#084A5F"/>
</svg>
