<svg width="165" height="73" viewBox="0 0 165 73" fill="none" xmlns="http://www.w3.org/2000/svg">
<mask id="mask0" mask-type="alpha" maskUnits="userSpaceOnUse" x="0" y="0" width="165" height="73">
<rect width="165" height="73" rx="5" fill="#219653"/>
</mask>
<g mask="url(#mask0)">
<path d="M98.8514 73.7449L165 10.4286H172.432V84.1734H64.6622V73.7449C71.1036 70.0204 98.8514 64.8061 98.8514 73.7449Z" fill="white"/>
<path d="M39.8866 25.7556C39.8866 29.9389 37.4785 32.9423 31.9666 32.9423H24.7958V18.7833H31.9666C37.532 18.7833 39.8866 21.5186 39.8866 25.7556ZM19.926 14.7609V52.1428H24.7958V36.8575H30.6822L39.5655 52.1428H45.3985L36.0336 36.4821C42.2947 35.0876 44.9168 30.5289 44.9168 25.7556C44.9168 19.6414 40.7428 14.7609 31.9666 14.7609H19.926Z" fill="#FCFEFF"/>
<path d="M50.6641 37.3402C50.6641 46.4578 56.7111 52.6255 64.5241 52.6255C69.929 52.6255 73.7284 49.8366 75.4944 46.6723V52.1428H80.4176V22.7521H75.4944V28.1154C73.7819 25.0583 70.036 22.2694 64.5776 22.2694C56.7111 22.2694 50.6641 28.169 50.6641 37.3402ZM75.4944 37.3938C75.4944 44.3125 70.8922 48.3349 65.5409 48.3349C60.1895 48.3349 55.6409 44.2588 55.6409 37.3402C55.6409 30.4216 60.1895 26.5064 65.5409 26.5064C70.8922 26.5064 75.4944 30.5825 75.4944 37.3938Z" fill="#FCFEFF"/>
<path d="M109.731 44.1516C109.517 33.6396 92.5 37.4475 92.5 30.4752C92.5 28.1154 94.6405 26.3992 98.2259 26.3992C102.132 26.3992 104.38 28.5445 104.594 31.4943H109.464C109.143 25.7556 104.862 22.2694 98.3865 22.2694C91.8578 22.2694 87.6302 25.9701 87.6302 30.4752C87.6302 41.4163 104.969 37.6084 104.969 44.1516C104.969 46.565 102.828 48.4958 98.9751 48.4958C94.8546 48.4958 92.3394 46.3505 92.0719 43.508H87.0416C87.3627 48.8712 92.1789 52.6255 99.0286 52.6255C105.504 52.6255 109.731 48.9785 109.731 44.1516Z" fill="#FCFEFF"/>
<path d="M121.475 28.169V22.7521H116.606V66.0873H121.475V46.7259C123.295 49.7294 127.094 52.6255 132.446 52.6255C140.312 52.6255 146.359 46.4578 146.359 37.3402C146.359 28.169 140.312 22.2694 132.446 22.2694C127.094 22.2694 123.241 25.0583 121.475 28.169ZM141.382 37.3402C141.382 44.2588 136.834 48.3349 131.429 48.3349C126.131 48.3349 121.475 44.3125 121.475 37.3938C121.475 30.5825 126.131 26.5064 131.429 26.5064C136.834 26.5064 141.382 30.4216 141.382 37.3402Z" fill="#FCFEFF"/>
<mask id="mask1" mask-type="alpha" maskUnits="userSpaceOnUse" x="57" y="7" width="109" height="75">
<path d="M92.1622 70.7653L158.311 7.44897H165.743V81.1939H57.973V70.7653C64.4144 67.0408 92.1622 61.8265 92.1622 70.7653Z" fill="white"/>
</mask>
<g mask="url(#mask1)">
<path d="M39.8866 25.7556C39.8866 29.9389 37.4785 32.9423 31.9666 32.9423H24.7958V18.7833H31.9666C37.532 18.7833 39.8866 21.5186 39.8866 25.7556ZM19.926 14.7609V52.1428H24.7958V36.8575H30.6822L39.5655 52.1428H45.3985L36.0336 36.4821C42.2947 35.0876 44.9168 30.5289 44.9168 25.7556C44.9168 19.6414 40.7428 14.7609 31.9666 14.7609H19.926Z" fill="#27C5F7"/>
<path d="M50.6641 37.3402C50.6641 46.4578 56.7111 52.6255 64.5241 52.6255C69.929 52.6255 73.7284 49.8366 75.4944 46.6723V52.1428H80.4176V22.7521H75.4944V28.1154C73.7819 25.0583 70.036 22.2694 64.5776 22.2694C56.7111 22.2694 50.6641 28.169 50.6641 37.3402ZM75.4944 37.3938C75.4944 44.3125 70.8922 48.3349 65.5409 48.3349C60.1895 48.3349 55.6409 44.2588 55.6409 37.3402C55.6409 30.4216 60.1895 26.5064 65.5409 26.5064C70.8922 26.5064 75.4944 30.5825 75.4944 37.3938Z" fill="#27C5F7"/>
<path d="M109.731 44.1516C109.517 33.6396 92.5 37.4475 92.5 30.4752C92.5 28.1154 94.6405 26.3992 98.2259 26.3992C102.132 26.3992 104.38 28.5445 104.594 31.4943H109.464C109.143 25.7556 104.862 22.2694 98.3865 22.2694C91.8578 22.2694 87.6302 25.9701 87.6302 30.4752C87.6302 41.4163 104.969 37.6084 104.969 44.1516C104.969 46.565 102.828 48.4958 98.9751 48.4958C94.8546 48.4958 92.3394 46.3505 92.0719 43.508H87.0416C87.3627 48.8712 92.1789 52.6255 99.0286 52.6255C105.504 52.6255 109.731 48.9785 109.731 44.1516Z" fill="#27C5F7"/>
<path d="M121.475 28.169V22.7521H116.606V66.0873H121.475V46.7259C123.295 49.7294 127.094 52.6255 132.446 52.6255C140.312 52.6255 146.359 46.4578 146.359 37.3402C146.359 28.169 140.312 22.2694 132.446 22.2694C127.094 22.2694 123.241 25.0583 121.475 28.169ZM141.382 37.3402C141.382 44.2588 136.834 48.3349 131.429 48.3349C126.131 48.3349 121.475 44.3125 121.475 37.3938C121.475 30.5825 126.131 26.5064 131.429 26.5064C136.834 26.5064 141.382 30.4216 141.382 37.3402Z" fill="#27C5F7"/>
</g>
</g>
</svg>
